<svg width="673" height="162" viewBox="0 0 673 162" fill="none" xmlns="http://www.w3.org/2000/svg">
<path d="M92.0468 69.592C92.8788 69.592 93.5188 69.976 93.9668 70.744C94.4788 71.512 94.7348 72.568 94.7348 73.912C94.7348 76.408 94.1268 78.392 92.9108 79.864C89.6468 83.896 86.3828 86.84 83.1188 88.696C79.9188 90.552 76.4948 91.48 72.8468 91.48C67.4068 91.48 63.1828 89.88 60.1748 86.68C57.1668 83.416 55.6628 79.064 55.6628 73.624C55.6628 70.232 56.4308 64.76 57.9668 57.208L61.5188 39.64C63.3108 30.808 64.3348 24.76 64.5908 21.496C60.3668 21.304 55.3748 21.208 49.6147 21.208C46.1588 21.208 43.6628 21.24 42.1268 21.304C39.8228 32.952 37.6468 44.76 35.5988 56.728C34.8948 61.08 34.1588 66.136 33.3908 71.896C32.6228 77.592 32.1108 82.2 31.8548 85.72C31.7268 87.576 30.9588 89.016 29.5508 90.04C28.1428 91 26.4468 91.48 24.4628 91.48C22.3508 91.48 20.7188 90.968 19.5668 89.944C18.4148 88.92 17.8388 87.576 17.8388 85.912C17.8388 84.376 18.0628 81.848 18.5108 78.328C19.0228 74.744 19.5988 71 20.2388 67.096C20.9428 63.192 21.4868 59.8 21.8708 56.92C22.7028 51.608 23.5988 46.424 24.5588 41.368C25.5188 36.312 26.4788 31.448 27.4388 26.776L28.3988 22.168C22.4468 22.872 18.1268 24.024 15.4388 25.624C12.8148 27.224 11.5028 29.4 11.5028 32.152C11.5028 34.392 12.0468 36.344 13.1348 38.008C13.4548 38.456 13.6148 39.032 13.6148 39.736C13.6148 41.016 12.9108 42.2 11.5028 43.288C10.1588 44.312 8.71875 44.824 7.18275 44.824C6.09475 44.824 5.19875 44.504 4.49475 43.864C3.21475 42.776 2.15875 41.24 1.32675 39.256C0.49475 37.208 0.07875 34.904 0.07875 32.344C0.07875 26.904 1.96675 22.552 5.74275 19.288C9.51875 15.96 15.2148 13.528 22.8308 11.992C30.5108 10.456 40.3988 9.68799 52.4948 9.68799C65.0388 9.68799 77.3268 10.648 89.3588 12.568C91.3428 12.888 92.7508 13.56 93.5828 14.584C94.4788 15.544 94.9268 16.664 94.9268 17.944C94.9268 19.864 94.4468 21.336 93.4868 22.36C92.5268 23.32 91.0868 23.8 89.1668 23.8C88.4628 23.8 87.9188 23.768 87.5348 23.704L77.8388 22.456C77.5828 26.936 76.9108 31.544 75.8228 36.28L69.9668 63.736C69.3268 66.936 69.0068 69.688 69.0068 71.992C69.0068 74.68 69.6148 76.696 70.8308 78.04C72.1108 79.384 73.8708 80.056 76.1108 80.056C78.2228 80.056 80.2708 79.352 82.2548 77.944C84.3028 76.536 86.7028 74.2 89.4548 70.936C90.2228 70.04 91.0868 69.592 92.0468 69.592ZM103.529 91.48C99.5605 91.48 96.3925 90.04 94.0245 87.16C91.6565 84.28 90.4725 80.504 90.4725 75.832C90.4725 70.712 91.6565 65.88 94.0245 61.336C96.3925 56.728 99.5285 53.048 103.433 50.296C107.401 47.48 111.593 46.072 116.009 46.072C117.417 46.072 118.345 46.36 118.793 46.936C119.305 47.448 119.721 48.408 120.041 49.816C121.385 49.56 122.793 49.432 124.265 49.432C127.401 49.432 128.969 50.552 128.969 52.792C128.969 54.136 128.489 57.336 127.529 62.392C126.057 69.752 125.321 74.872 125.321 77.752C125.321 78.712 125.545 79.48 125.993 80.056C126.505 80.632 127.145 80.92 127.913 80.92C129.129 80.92 130.601 80.152 132.329 78.616C134.057 77.016 136.393 74.456 139.337 70.936C140.105 70.04 140.969 69.592 141.929 69.592C142.761 69.592 143.401 69.976 143.849 70.744C144.361 71.512 144.617 72.568 144.617 73.912C144.617 76.472 144.009 78.456 142.793 79.864C140.169 83.128 137.385 85.88 134.441 88.12C131.497 90.36 128.649 91.48 125.897 91.48C123.785 91.48 121.833 90.776 120.041 89.368C118.313 87.896 117.001 85.912 116.105 83.416C112.777 88.792 108.585 91.48 103.529 91.48ZM106.985 81.784C108.393 81.784 109.737 80.952 111.017 79.288C112.297 77.624 113.225 75.416 113.801 72.664L117.353 55C114.665 55.064 112.169 56.088 109.865 58.072C107.625 59.992 105.833 62.552 104.489 65.752C103.145 68.952 102.473 72.344 102.473 75.928C102.473 77.912 102.857 79.384 103.625 80.344C104.457 81.304 105.577 81.784 106.985 81.784ZM192.878 69.592C193.71 69.592 194.35 69.976 194.798 70.744C195.31 71.512 195.566 72.568 195.566 73.912C195.566 76.472 194.958 78.456 193.742 79.864C190.99 83.256 188.014 86.04 184.814 88.216C181.678 90.392 178.094 91.48 174.062 91.48C170.67 91.48 167.918 90.264 165.806 87.832C162.158 90.2 158.35 91.416 154.382 91.48C153.55 103.832 151.662 114.136 148.718 122.392C145.774 130.712 141.454 134.872 135.758 134.872C132.302 134.872 129.742 133.624 128.078 131.128C126.414 128.632 125.582 125.176 125.582 120.76C125.582 114.488 127.022 107.16 129.902 98.776C132.782 90.456 137.23 81.272 143.246 71.224C143.246 61.88 143.182 55.384 143.054 51.736C142.99 49.88 143.726 48.408 145.262 47.32C146.798 46.232 148.718 45.688 151.022 45.688C152.366 45.688 153.326 45.976 153.902 46.552C154.542 47.064 154.894 48.12 154.958 49.72C154.958 51.32 154.99 52.504 155.054 53.272C157.102 50.712 159.118 48.888 161.102 47.8C163.086 46.648 165.198 46.072 167.438 46.072C171.022 46.072 173.934 47.512 176.174 50.392C178.478 53.272 179.63 57.048 179.63 61.72C179.63 65.112 179.086 68.408 177.998 71.608C176.91 74.808 175.406 77.72 173.486 80.344C174.83 80.728 175.95 80.92 176.846 80.92C178.958 80.92 180.974 80.152 182.894 78.616C184.814 77.08 187.278 74.52 190.286 70.936C191.054 70.04 191.918 69.592 192.878 69.592ZM154.862 82.264C157.166 81.752 159.278 80.504 161.198 78.52C163.182 76.472 164.75 73.976 165.902 71.032C167.054 68.024 167.63 64.888 167.63 61.624C167.63 59.704 167.246 58.264 166.478 57.304C165.71 56.28 164.686 55.768 163.406 55.768C161.102 55.768 158.318 58.2 155.054 63.064C154.99 65.88 154.958 70.008 154.958 75.448C154.958 78.392 154.926 80.664 154.862 82.264ZM136.526 125.464C138.254 125.464 139.694 121.688 140.846 114.136C141.998 106.648 142.734 97.304 143.054 86.104C140.302 92.504 138.126 98.616 136.526 104.44C134.926 110.264 134.126 115.16 134.126 119.128C134.126 121.176 134.382 122.744 134.894 123.832C135.342 124.92 135.886 125.464 136.526 125.464ZM199.449 91.48C197.017 91.48 195.289 90.2 194.265 87.64C193.305 85.08 192.825 80.984 192.825 75.352C192.825 67.032 194.009 59.128 196.377 51.64C196.953 49.784 197.881 48.44 199.161 47.608C200.505 46.712 202.361 46.264 204.729 46.264C206.009 46.264 206.905 46.424 207.417 46.744C207.929 47.064 208.185 47.672 208.185 48.568C208.185 49.592 207.705 51.896 206.745 55.48C206.105 58.04 205.593 60.28 205.209 62.2C204.825 64.056 204.505 66.392 204.249 69.208C205.977 64.216 208.025 59.992 210.393 56.536C212.825 53.08 215.289 50.52 217.785 48.856C220.345 47.128 222.745 46.264 224.985 46.264C227.225 46.264 228.793 46.776 229.689 47.8C230.649 48.824 231.129 50.392 231.129 52.504C231.129 54.552 230.521 58.264 229.305 63.64C228.793 65.944 228.441 67.672 228.249 68.824C231.449 60.952 235.001 55.224 238.905 51.64C242.809 48.056 246.457 46.264 249.849 46.264C254.009 46.264 256.089 48.344 256.089 52.504C256.089 55 255.385 59.512 253.977 66.04C252.761 71.608 252.153 75.288 252.153 77.08C252.153 79.64 253.081 80.92 254.937 80.92C256.217 80.92 257.721 80.152 259.449 78.616C261.241 77.016 263.609 74.456 266.553 70.936C267.321 70.04 268.185 69.592 269.145 69.592C269.977 69.592 270.617 69.976 271.065 70.744C271.577 71.512 271.833 72.568 271.833 73.912C271.833 76.472 271.225 78.456 270.009 79.864C267.257 83.256 264.281 86.04 261.081 88.216C257.945 90.392 254.361 91.48 250.329 91.48C247.065 91.48 244.601 90.552 242.937 88.696C241.273 86.776 240.441 84.024 240.441 80.44C240.441 78.648 240.889 75.448 241.785 70.84C242.617 66.808 243.033 64.024 243.033 62.488C243.033 61.464 242.681 60.952 241.977 60.952C241.145 60.952 239.961 62.04 238.425 64.216C236.889 66.328 235.353 69.144 233.817 72.664C232.281 76.184 231.033 79.896 230.073 83.8C229.369 86.872 228.537 88.92 227.577 89.944C226.681 90.968 225.209 91.48 223.161 91.48C221.049 91.48 219.449 90.488 218.361 88.504C217.337 86.456 216.825 83.992 216.825 81.112C216.825 78.68 217.145 75.16 217.785 70.552C218.297 66.456 218.553 63.768 218.553 62.488C218.553 61.464 218.201 60.952 217.497 60.952C216.537 60.952 215.321 62.104 213.849 64.408C212.377 66.712 210.937 69.656 209.529 73.24C208.185 76.824 207.097 80.344 206.265 83.8C205.561 86.808 204.729 88.856 203.769 89.944C202.873 90.968 201.433 91.48 199.449 91.48ZM319.559 69.592C320.391 69.592 321.031 69.976 321.479 70.744C321.991 71.512 322.247 72.568 322.247 73.912C322.247 76.472 321.639 78.456 320.423 79.864C317.479 83.256 314.439 86.04 311.303 88.216C308.231 90.392 304.711 91.48 300.743 91.48C297.415 91.48 295.079 90.456 293.735 88.408C292.391 86.36 291.719 83.288 291.719 79.192C291.719 77.464 291.879 75.384 292.199 72.952C286.567 72.952 282.663 72.888 280.487 72.76C280.359 74.552 280.295 75.8 280.295 76.504V78.52C280.231 82.488 280.135 85.272 280.007 86.872C279.879 88.472 279.495 89.656 278.855 90.424C278.215 91.128 277.159 91.48 275.687 91.48C273.255 91.48 271.527 90.2 270.503 87.64C269.543 85.08 269.063 80.984 269.063 75.352C269.063 67.032 270.247 59.128 272.615 51.64C273.191 49.784 274.119 48.44 275.399 47.608C276.679 46.712 278.535 46.264 280.967 46.264C282.247 46.264 283.143 46.424 283.655 46.744C284.167 47.064 284.423 47.672 284.423 48.568C284.423 49.592 283.943 51.896 282.983 55.48C282.471 57.592 281.991 60.152 281.543 63.16H293.831C294.471 60.152 295.399 56.312 296.615 51.64C297.127 49.72 297.895 48.344 298.919 47.512C300.007 46.68 301.607 46.264 303.719 46.264C305.191 46.264 306.215 46.456 306.791 46.84C307.367 47.16 307.655 47.8 307.655 48.76C307.655 50.36 306.855 54.744 305.255 61.912C303.463 70.104 302.567 75.16 302.567 77.08C302.567 78.296 302.823 79.256 303.335 79.96C303.847 80.6 304.519 80.92 305.351 80.92C306.631 80.92 308.135 80.152 309.863 78.616C311.655 77.016 314.023 74.456 316.967 70.936C317.735 70.04 318.599 69.592 319.559 69.592ZM362.049 69.592C362.881 69.592 363.521 69.976 363.969 70.744C364.481 71.512 364.737 72.568 364.737 73.912C364.737 76.472 364.129 78.456 362.913 79.864C360.545 82.744 357.185 85.4 352.833 87.832C348.545 90.264 343.937 91.48 339.009 91.48C332.289 91.48 327.073 89.656 323.361 86.008C319.649 82.36 317.793 77.368 317.793 71.032C317.793 66.616 318.721 62.52 320.577 58.744C322.433 54.904 324.993 51.864 328.257 49.624C331.585 47.384 335.329 46.264 339.489 46.264C343.201 46.264 346.177 47.384 348.417 49.624C350.657 51.8 351.777 54.776 351.777 58.552C351.777 62.968 350.177 66.776 346.977 69.976C343.841 73.112 338.497 75.608 330.945 77.464C332.545 80.408 335.585 81.88 340.065 81.88C342.945 81.88 346.209 80.888 349.857 78.904C353.569 76.856 356.769 74.2 359.457 70.936C360.225 70.04 361.089 69.592 362.049 69.592ZM337.857 55.672C335.489 55.672 333.473 57.048 331.809 59.8C330.209 62.552 329.409 65.88 329.409 69.784V69.976C333.185 69.08 336.161 67.736 338.337 65.944C340.513 64.152 341.601 62.072 341.601 59.704C341.601 58.488 341.249 57.528 340.545 56.824C339.905 56.056 339.009 55.672 337.857 55.672ZM414.859 69.592C415.691 69.592 416.331 69.976 416.779 70.744C417.291 71.512 417.547 72.568 417.547 73.912C417.547 76.472 416.939 78.456 415.723 79.864C412.971 83.256 409.995 86.04 406.795 88.216C403.659 90.392 400.075 91.48 396.043 91.48C392.651 91.48 389.899 90.264 387.787 87.832C384.139 90.2 380.331 91.416 376.363 91.48C375.531 103.832 373.643 114.136 370.699 122.392C367.755 130.712 363.435 134.872 357.739 134.872C354.283 134.872 351.723 133.624 350.059 131.128C348.395 128.632 347.563 125.176 347.563 120.76C347.563 114.488 349.003 107.16 351.883 98.776C354.763 90.456 359.211 81.272 365.227 71.224C365.227 61.88 365.163 55.384 365.035 51.736C364.971 49.88 365.707 48.408 367.243 47.32C368.779 46.232 370.699 45.688 373.003 45.688C374.347 45.688 375.307 45.976 375.883 46.552C376.523 47.064 376.875 48.12 376.939 49.72C376.939 51.32 376.971 52.504 377.035 53.272C379.083 50.712 381.099 48.888 383.083 47.8C385.067 46.648 387.179 46.072 389.419 46.072C393.003 46.072 395.915 47.512 398.155 50.392C400.459 53.272 401.611 57.048 401.611 61.72C401.611 65.112 401.067 68.408 399.979 71.608C398.891 74.808 397.387 77.72 395.467 80.344C396.811 80.728 397.931 80.92 398.827 80.92C400.939 80.92 402.955 80.152 404.875 78.616C406.795 77.08 409.259 74.52 412.267 70.936C413.035 70.04 413.899 69.592 414.859 69.592ZM376.843 82.264C379.147 81.752 381.259 80.504 383.179 78.52C385.163 76.472 386.731 73.976 387.883 71.032C389.035 68.024 389.611 64.888 389.611 61.624C389.611 59.704 389.227 58.264 388.459 57.304C387.691 56.28 386.667 55.768 385.387 55.768C383.083 55.768 380.299 58.2 377.035 63.064C376.971 65.88 376.939 70.008 376.939 75.448C376.939 78.392 376.907 80.664 376.843 82.264ZM358.507 125.464C360.235 125.464 361.675 121.688 362.827 114.136C363.979 106.648 364.715 97.304 365.035 86.104C362.283 92.504 360.107 98.616 358.507 104.44C356.907 110.264 356.107 115.16 356.107 119.128C356.107 121.176 356.363 122.744 356.875 123.832C357.323 124.92 357.867 125.464 358.507 125.464ZM438.806 91.48C434.39 91.48 430.39 90.392 426.806 88.216C423.286 86.04 420.502 82.904 418.454 78.808C416.406 74.648 415.382 69.752 415.382 64.12C415.382 54.392 417.462 45.4 421.622 37.144C425.782 28.824 431.926 22.168 440.054 17.176C448.182 12.12 457.942 9.592 469.334 9.592C472.278 9.592 475.414 9.816 478.742 10.264C482.134 10.712 485.206 11.384 487.958 12.28C489.75 12.792 490.646 14.072 490.646 16.12C490.646 17.784 490.006 19.352 488.726 20.824C487.51 22.296 486.07 23.032 484.406 23.032C483.894 23.032 483.51 23 483.254 22.936C479.926 22.168 477.078 21.624 474.71 21.304C472.342 20.92 469.846 20.728 467.222 20.728C459.094 20.728 452.182 22.712 446.486 26.68C440.79 30.584 436.534 35.768 433.718 42.232C430.902 48.696 429.494 55.672 429.494 63.16C429.494 68.6 430.55 72.824 432.662 75.832C434.838 78.776 437.654 80.248 441.11 80.248C445.014 80.248 448.438 78.648 451.382 75.448C454.326 72.248 457.014 67.064 459.446 59.896C461.878 52.728 464.278 43 466.646 30.712C467.03 28.92 467.798 27.704 468.95 27.064C470.102 26.424 471.638 26.104 473.558 26.104C478.102 26.104 480.374 27.576 480.374 30.52C480.374 31.032 480.278 31.672 480.086 32.44C478.422 38.648 476.886 45.528 475.478 53.08C474.134 60.568 473.462 66.264 473.462 70.168C473.462 73.624 473.974 76.152 474.998 77.752C476.022 79.288 477.59 80.056 479.702 80.056C481.75 80.056 483.702 79.384 485.558 78.04C487.414 76.632 489.75 74.264 492.566 70.936C493.334 70.04 494.198 69.592 495.158 69.592C495.99 69.592 496.63 69.976 497.078 70.744C497.59 71.512 497.846 72.568 497.846 73.912C497.846 76.408 497.238 78.392 496.022 79.864C492.886 83.64 489.814 86.52 486.806 88.504C483.798 90.488 480.118 91.48 475.766 91.48C471.286 91.48 467.67 90.2 464.918 87.64C462.166 85.016 460.438 81.336 459.734 76.6C454.998 86.52 448.022 91.48 438.806 91.48ZM545.955 61.528C546.787 61.528 547.427 61.944 547.875 62.776C548.323 63.608 548.547 64.664 548.547 65.944C548.547 67.544 548.323 68.792 547.875 69.688C547.427 70.52 546.723 71.096 545.763 71.416C541.923 72.76 537.699 73.528 533.091 73.72C531.811 79.032 529.379 83.32 525.795 86.584C522.275 89.848 518.371 91.48 514.083 91.48C507.619 91.48 502.915 89.016 499.971 84.088C497.027 79.16 495.555 72.024 495.555 62.68C495.555 54.424 496.579 45.464 498.627 35.8C500.675 26.072 503.651 17.816 507.555 11.032C511.523 4.18399 516.227 0.759995 521.667 0.759995C524.611 0.759995 526.979 2.04 528.771 4.6C530.563 7.09599 531.459 10.36 531.459 14.392C531.459 19.64 530.467 24.856 528.483 30.04C526.499 35.224 523.203 40.664 518.595 46.36C522.883 46.68 526.371 48.472 529.059 51.736C531.747 54.936 533.347 58.904 533.859 63.64C536.867 63.448 540.451 62.808 544.611 61.72C544.995 61.592 545.443 61.528 545.955 61.528ZM519.459 10.264C518.179 10.264 516.771 12.184 515.235 16.024C513.763 19.8 512.387 24.952 511.107 31.48C509.827 38.008 508.867 45.144 508.227 52.888C512.451 45.144 515.811 38.328 518.307 32.44C520.867 26.488 522.147 21.208 522.147 16.6C522.147 14.552 521.891 12.984 521.379 11.896C520.931 10.808 520.291 10.264 519.459 10.264ZM514.467 81.304C516.451 81.304 518.211 80.472 519.747 78.808C521.283 77.144 522.307 74.744 522.819 71.608C520.835 70.264 519.299 68.504 518.211 66.328C517.187 64.152 516.675 61.848 516.675 59.416C516.675 58.52 516.803 57.304 517.059 55.768H516.771C514.147 55.768 511.939 57.08 510.147 59.704C508.419 62.264 507.555 65.72 507.555 70.072C507.555 73.72 508.227 76.504 509.571 78.424C510.979 80.344 512.611 81.304 514.467 81.304ZM551.874 91.48C549.442 91.48 547.714 90.2 546.69 87.64C545.73 85.08 545.25 80.984 545.25 75.352C545.25 67.032 546.434 59.128 548.802 51.64C549.378 49.784 550.306 48.44 551.586 47.608C552.93 46.712 554.786 46.264 557.154 46.264C558.434 46.264 559.33 46.424 559.842 46.744C560.354 47.064 560.61 47.672 560.61 48.568C560.61 49.592 560.13 51.896 559.17 55.48C558.53 58.04 558.018 60.28 557.634 62.2C557.25 64.056 556.93 66.392 556.674 69.208C558.402 64.216 560.45 59.992 562.818 56.536C565.25 53.08 567.714 50.52 570.21 48.856C572.77 47.128 575.17 46.264 577.41 46.264C579.65 46.264 581.218 46.776 582.114 47.8C583.074 48.824 583.554 50.392 583.554 52.504C583.554 54.552 582.946 58.264 581.73 63.64C581.218 65.944 580.866 67.672 580.674 68.824C583.874 60.952 587.426 55.224 591.33 51.64C595.234 48.056 598.882 46.264 602.274 46.264C606.434 46.264 608.514 48.344 608.514 52.504C608.514 55 607.81 59.512 606.402 66.04C605.186 71.608 604.578 75.288 604.578 77.08C604.578 79.64 605.506 80.92 607.362 80.92C608.642 80.92 610.146 80.152 611.874 78.616C613.666 77.016 616.034 74.456 618.978 70.936C619.746 70.04 620.61 69.592 621.57 69.592C622.402 69.592 623.042 69.976 623.49 70.744C624.002 71.512 624.258 72.568 624.258 73.912C624.258 76.472 623.65 78.456 622.434 79.864C619.682 83.256 616.706 86.04 613.506 88.216C610.37 90.392 606.786 91.48 602.754 91.48C599.49 91.48 597.026 90.552 595.362 88.696C593.698 86.776 592.866 84.024 592.866 80.44C592.866 78.648 593.314 75.448 594.21 70.84C595.042 66.808 595.458 64.024 595.458 62.488C595.458 61.464 595.106 60.952 594.402 60.952C593.57 60.952 592.386 62.04 590.85 64.216C589.314 66.328 587.778 69.144 586.242 72.664C584.706 76.184 583.458 79.896 582.498 83.8C581.794 86.872 580.962 88.92 580.002 89.944C579.106 90.968 577.634 91.48 575.586 91.48C573.474 91.48 571.874 90.488 570.786 88.504C569.762 86.456 569.25 83.992 569.25 81.112C569.25 78.68 569.57 75.16 570.21 70.552C570.722 66.456 570.978 63.768 570.978 62.488C570.978 61.464 570.626 60.952 569.922 60.952C568.962 60.952 567.746 62.104 566.274 64.408C564.802 66.712 563.362 69.656 561.954 73.24C560.61 76.824 559.522 80.344 558.69 83.8C557.986 86.808 557.154 88.856 556.194 89.944C555.298 90.968 553.858 91.48 551.874 91.48ZM670.256 61.528C671.088 61.528 671.728 61.944 672.176 62.776C672.624 63.608 672.848 64.664 672.848 65.944C672.848 69.016 671.92 70.84 670.064 71.416C666.224 72.76 662 73.528 657.392 73.72C656.176 79.096 653.776 83.416 650.192 86.68C646.608 89.88 642.544 91.48 638 91.48C634.16 91.48 630.864 90.552 628.112 88.696C625.424 86.84 623.376 84.376 621.968 81.304C620.56 78.232 619.855 74.904 619.855 71.32C619.855 66.456 620.784 62.136 622.64 58.36C624.496 54.52 627.056 51.544 630.32 49.432C633.584 47.256 637.2 46.168 641.168 46.168C646.032 46.168 649.936 47.864 652.88 51.256C655.888 54.584 657.648 58.712 658.16 63.64C661.168 63.448 664.752 62.808 668.912 61.72C669.424 61.592 669.872 61.528 670.256 61.528ZM638.768 81.304C640.816 81.304 642.576 80.472 644.048 78.808C645.584 77.144 646.608 74.744 647.12 71.608C645.136 70.264 643.6 68.504 642.512 66.328C641.488 64.152 640.976 61.848 640.976 59.416C640.976 58.392 641.072 57.368 641.264 56.344H640.784C638.224 56.344 636.08 57.592 634.352 60.088C632.688 62.52 631.856 65.976 631.856 70.456C631.856 73.976 632.528 76.664 633.872 78.52C635.28 80.376 636.912 81.304 638.768 81.304ZM326.345 144.44C327.081 144.44 327.641 144.664 328.025 145.112C328.409 145.56 328.601 146.104 328.601 146.744C328.601 147.544 328.329 148.28 327.785 148.952C327.273 149.592 326.569 149.912 325.673 149.912H317.801L316.745 158.696C316.617 159.528 316.249 160.168 315.641 160.616C315.065 161.064 314.393 161.288 313.625 161.288C312.889 161.288 312.281 161.064 311.801 160.616C311.353 160.168 311.177 159.528 311.273 158.696L312.329 149.912H304.553C303.817 149.912 303.257 149.688 302.873 149.24C302.489 148.76 302.297 148.2 302.297 147.56C302.297 146.76 302.553 146.04 303.065 145.4C303.609 144.76 304.329 144.44 305.225 144.44H313.049L314.105 135.656C314.201 134.856 314.537 134.232 315.113 133.784C315.689 133.336 316.345 133.112 317.081 133.112C317.817 133.112 318.441 133.336 318.953 133.784C319.465 134.232 319.673 134.856 319.577 135.656L318.521 144.44H326.345ZM354.072 133.064C354.584 133.064 355 133.304 355.32 133.784C355.672 134.232 355.848 134.92 355.848 135.848C355.848 136.712 355.672 137.368 355.32 137.816C354.968 138.232 354.52 138.616 353.976 138.968C353.464 139.32 353.096 139.576 352.872 139.736C349.48 142.072 347.112 144.744 345.768 147.752C344.456 150.76 343.656 153.976 343.368 157.4C343.24 158.744 342.872 159.72 342.264 160.328C341.688 160.936 340.952 161.24 340.056 161.24C339.16 161.24 338.408 160.936 337.8 160.328C337.192 159.688 336.888 158.584 336.888 157.016C336.888 155.192 337.224 153.192 337.896 151.016C338.6 148.808 339.704 146.616 341.208 144.44C342.744 142.264 344.68 140.328 347.016 138.632L335.208 138.824C334.536 138.824 334.024 138.6 333.672 138.152C333.32 137.704 333.144 137.144 333.144 136.472C333.144 135.64 333.4 134.904 333.912 134.264C334.456 133.592 335.176 133.256 336.072 133.256C337.64 133.256 339.928 133.368 342.936 133.592C343.544 133.624 344.664 133.688 346.296 133.784C347.928 133.88 349.208 133.928 350.136 133.928C350.552 133.928 351.16 133.784 351.96 133.496C352.12 133.464 352.424 133.384 352.872 133.256C353.352 133.128 353.752 133.064 354.072 133.064ZM381.611 132.968C384.907 132.968 387.419 134.008 389.147 136.088C390.907 138.136 391.787 140.984 391.787 144.632C391.787 147.896 391.227 150.792 390.107 153.32C389.019 155.816 387.451 157.768 385.403 159.176C383.387 160.552 381.019 161.24 378.299 161.24C375.835 161.24 373.803 160.68 372.203 159.56C370.635 158.408 369.739 156.904 369.515 155.048L369.467 154.52C369.467 153.688 369.723 153.048 370.235 152.6C370.779 152.12 371.531 151.88 372.491 151.88C373.195 151.88 373.755 152.072 374.171 152.456C374.619 152.808 375.003 153.432 375.323 154.328C375.579 155 375.995 155.528 376.571 155.912C377.179 156.296 377.931 156.488 378.827 156.488C380.683 156.488 382.187 155.768 383.339 154.328C384.523 152.856 385.259 150.68 385.547 147.8C384.715 148.76 383.771 149.448 382.715 149.864C381.659 150.248 380.491 150.44 379.211 150.44C377.611 150.44 376.171 150.104 374.891 149.432C373.643 148.76 372.667 147.832 371.963 146.648C371.259 145.432 370.907 144.088 370.907 142.616C370.907 140.792 371.323 139.16 372.155 137.72C373.019 136.248 374.251 135.096 375.851 134.264C377.483 133.4 379.403 132.968 381.611 132.968ZM380.651 145.64C382.027 145.64 383.099 145.256 383.867 144.488C384.635 143.72 385.019 142.696 385.019 141.416C385.019 140.264 384.699 139.352 384.059 138.68C383.419 138.008 382.523 137.672 381.371 137.672C380.091 137.672 379.051 138.088 378.251 138.92C377.483 139.72 377.099 140.776 377.099 142.088C377.099 143.176 377.419 144.04 378.059 144.68C378.699 145.32 379.563 145.64 380.651 145.64ZM416.364 155.624C417.036 155.624 417.548 155.848 417.9 156.296C418.252 156.744 418.428 157.304 418.428 157.976C418.428 158.808 418.156 159.56 417.612 160.232C417.1 160.872 416.396 161.192 415.5 161.192C413.964 161.192 411.676 161.08 408.636 160.856C408.028 160.824 406.908 160.76 405.276 160.664C403.644 160.568 402.364 160.52 401.436 160.52C401.02 160.52 400.412 160.664 399.612 160.952C399.452 160.984 399.132 161.064 398.652 161.192C398.204 161.32 397.82 161.384 397.5 161.384C396.988 161.384 396.556 161.16 396.204 160.712C395.884 160.232 395.724 159.528 395.724 158.6C395.724 157.576 395.964 156.792 396.444 156.248C396.924 155.672 397.676 155.16 398.7 154.712C400.876 153.752 402.924 152.536 404.844 151.064C406.796 149.56 408.348 147.944 409.5 146.216C410.684 144.488 411.276 142.84 411.276 141.272C411.276 140.024 410.988 139.112 410.412 138.536C409.868 137.928 408.988 137.624 407.772 137.624C406.364 137.624 405.228 138.008 404.364 138.776C403.532 139.544 403.116 140.616 403.116 141.992C403.116 143.88 402.172 144.824 400.284 144.824C399.388 144.824 398.684 144.568 398.172 144.056C397.692 143.544 397.452 142.808 397.452 141.848C397.452 140.248 397.868 138.776 398.7 137.432C399.532 136.088 400.78 135.016 402.444 134.216C404.108 133.384 406.14 132.968 408.54 132.968C411.42 132.968 413.676 133.688 415.308 135.128C416.94 136.568 417.756 138.568 417.756 141.128C417.756 143.56 416.684 146.104 414.54 148.76C412.428 151.416 409.372 153.768 405.372 155.816L416.364 155.624ZM443.223 155.624C443.895 155.624 444.407 155.848 444.759 156.296C445.111 156.744 445.287 157.304 445.287 157.976C445.287 158.808 445.015 159.56 444.471 160.232C443.959 160.872 443.255 161.192 442.359 161.192C440.823 161.192 438.535 161.08 435.495 160.856C434.887 160.824 433.767 160.76 432.135 160.664C430.503 160.568 429.223 160.52 428.295 160.52C427.879 160.52 427.271 160.664 426.471 160.952C426.311 160.984 425.991 161.064 425.511 161.192C425.063 161.32 424.679 161.384 424.359 161.384C423.847 161.384 423.415 161.16 423.063 160.712C422.743 160.232 422.583 159.528 422.583 158.6C422.583 157.576 422.823 156.792 423.303 156.248C423.783 155.672 424.535 155.16 425.559 154.712C427.735 153.752 429.783 152.536 431.703 151.064C433.655 149.56 435.207 147.944 436.359 146.216C437.543 144.488 438.135 142.84 438.135 141.272C438.135 140.024 437.847 139.112 437.271 138.536C436.727 137.928 435.847 137.624 434.631 137.624C433.223 137.624 432.087 138.008 431.223 138.776C430.391 139.544 429.975 140.616 429.975 141.992C429.975 143.88 429.031 144.824 427.143 144.824C426.247 144.824 425.543 144.568 425.031 144.056C424.551 143.544 424.311 142.808 424.311 141.848C424.311 140.248 424.727 138.776 425.559 137.432C426.391 136.088 427.639 135.016 429.303 134.216C430.967 133.384 432.999 132.968 435.399 132.968C438.279 132.968 440.535 133.688 442.167 135.128C443.799 136.568 444.615 138.568 444.615 141.128C444.615 143.56 443.543 146.104 441.399 148.76C439.287 151.416 436.231 153.768 432.231 155.816L443.223 155.624ZM483.026 133.064C483.538 133.064 483.954 133.304 484.274 133.784C484.626 134.232 484.802 134.92 484.802 135.848C484.802 136.712 484.626 137.368 484.274 137.816C483.922 138.232 483.474 138.616 482.93 138.968C482.418 139.32 482.05 139.576 481.826 139.736C478.434 142.072 476.066 144.744 474.722 147.752C473.41 150.76 472.61 153.976 472.322 157.4C472.194 158.744 471.826 159.72 471.218 160.328C470.642 160.936 469.906 161.24 469.01 161.24C468.114 161.24 467.362 160.936 466.754 160.328C466.146 159.688 465.842 158.584 465.842 157.016C465.842 155.192 466.178 153.192 466.85 151.016C467.554 148.808 468.658 146.616 470.162 144.44C471.698 142.264 473.634 140.328 475.97 138.632L464.162 138.824C463.49 138.824 462.978 138.6 462.626 138.152C462.274 137.704 462.098 137.144 462.098 136.472C462.098 135.64 462.354 134.904 462.866 134.264C463.41 133.592 464.13 133.256 465.026 133.256C466.594 133.256 468.882 133.368 471.89 133.592C472.498 133.624 473.618 133.688 475.25 133.784C476.882 133.88 478.162 133.928 479.09 133.928C479.506 133.928 480.114 133.784 480.914 133.496C481.074 133.464 481.378 133.384 481.826 133.256C482.306 133.128 482.706 133.064 483.026 133.064ZM496.085 161.24C492.949 161.24 490.517 160.216 488.789 158.168C487.093 156.12 486.245 153.192 486.245 149.384C486.245 146.152 486.741 143.304 487.733 140.84C488.757 138.344 490.165 136.408 491.957 135.032C493.781 133.656 495.893 132.968 498.293 132.968C501.429 132.968 503.845 133.992 505.541 136.04C507.269 138.088 508.133 141.016 508.133 144.824C508.133 148.056 507.621 150.92 506.597 153.416C505.605 155.88 504.197 157.8 502.373 159.176C500.581 160.552 498.485 161.24 496.085 161.24ZM496.565 155.864C498.293 155.864 499.653 154.904 500.645 152.984C501.637 151.064 502.133 148.456 502.133 145.16C502.133 142.952 501.765 141.272 501.029 140.12C500.293 138.936 499.221 138.344 497.813 138.344C496.085 138.344 494.725 139.32 493.733 141.272C492.741 143.192 492.245 145.8 492.245 149.096C492.245 151.304 492.597 152.984 493.301 154.136C494.037 155.288 495.125 155.864 496.565 155.864ZM522.147 161.24C519.011 161.24 516.579 160.216 514.851 158.168C513.155 156.12 512.307 153.192 512.307 149.384C512.307 146.152 512.803 143.304 513.795 140.84C514.819 138.344 516.227 136.408 518.019 135.032C519.843 133.656 521.955 132.968 524.355 132.968C527.491 132.968 529.907 133.992 531.603 136.04C533.331 138.088 534.195 141.016 534.195 144.824C534.195 148.056 533.683 150.92 532.659 153.416C531.667 155.88 530.259 157.8 528.435 159.176C526.643 160.552 524.547 161.24 522.147 161.24ZM522.627 155.864C524.355 155.864 525.715 154.904 526.707 152.984C527.699 151.064 528.195 148.456 528.195 145.16C528.195 142.952 527.827 141.272 527.091 140.12C526.355 138.936 525.283 138.344 523.875 138.344C522.147 138.344 520.787 139.32 519.795 141.272C518.803 143.192 518.307 145.8 518.307 149.096C518.307 151.304 518.659 152.984 519.363 154.136C520.099 155.288 521.187 155.864 522.627 155.864ZM558.033 161.24C557.233 161.24 556.529 161 555.921 160.52C555.313 160.04 555.009 159.288 555.009 158.264L555.057 157.736C555.409 154.44 555.825 151.016 556.305 147.464C556.817 143.88 557.249 141.128 557.601 139.208L553.857 140.264L553.281 140.36C552.673 140.36 552.193 140.12 551.841 139.64C551.489 139.16 551.313 138.616 551.313 138.008L551.361 137.576C551.425 136.968 551.617 136.472 551.937 136.088C552.257 135.704 552.865 135.32 553.761 134.936C554.689 134.552 556.065 134.136 557.889 133.688L559.905 133.208C560.641 133.048 561.249 132.968 561.729 132.968C562.657 132.968 563.345 133.208 563.793 133.688C564.273 134.168 564.513 134.84 564.513 135.704C564.513 136.088 564.465 136.504 564.369 136.952C563.857 139.448 562.881 146.552 561.441 158.264C561.185 160.248 560.049 161.24 558.033 161.24ZM590.624 150.2C592.32 150.2 593.168 150.92 593.168 152.36C593.168 153.512 592.848 154.312 592.208 154.76C591.568 155.208 590.56 155.432 589.184 155.432H588.176L587.984 157.976C587.888 159.448 587.568 160.44 587.024 160.952C586.512 161.464 585.664 161.72 584.48 161.72C582.784 161.72 581.936 160.68 581.936 158.6C581.936 158.248 581.952 157.976 581.984 157.784L582.224 155.432C577.584 155.432 574.064 155.416 571.664 155.384C570.96 155.384 570.336 155.064 569.792 154.424C569.248 153.784 568.976 152.952 568.976 151.928C568.976 151.32 569.088 150.68 569.312 150.008C570.72 145.912 572.832 141.256 575.648 136.04C576.256 134.92 576.864 134.136 577.472 133.688C578.112 133.208 579.088 132.968 580.4 132.968C581.104 132.968 581.632 133.128 581.984 133.448C582.368 133.768 582.56 134.184 582.56 134.696C582.56 135.24 582.4 135.784 582.08 136.328C578.944 142.056 576.736 146.68 575.456 150.2H582.848C583.232 147.224 583.76 144.392 584.432 141.704C584.688 140.712 585.104 139.96 585.68 139.448C586.256 138.904 587.056 138.632 588.08 138.632C589.712 138.632 590.528 139.336 590.528 140.744C590.528 141.16 590.496 141.48 590.432 141.704C589.856 144.424 589.344 147.256 588.896 150.2H590.624ZM629.926 155.624C630.598 155.624 631.11 155.848 631.462 156.296C631.814 156.744 631.99 157.304 631.99 157.976C631.99 158.808 631.718 159.56 631.174 160.232C630.662 160.872 629.958 161.192 629.062 161.192C627.526 161.192 625.238 161.08 622.198 160.856C621.59 160.824 620.47 160.76 618.838 160.664C617.206 160.568 615.926 160.52 614.998 160.52C614.582 160.52 613.974 160.664 613.174 160.952C613.014 160.984 612.694 161.064 612.214 161.192C611.766 161.32 611.382 161.384 611.062 161.384C610.55 161.384 610.118 161.16 609.766 160.712C609.446 160.232 609.286 159.528 609.286 158.6C609.286 157.576 609.526 156.792 610.006 156.248C610.486 155.672 611.238 155.16 612.262 154.712C614.438 153.752 616.486 152.536 618.406 151.064C620.358 149.56 621.91 147.944 623.062 146.216C624.246 144.488 624.838 142.84 624.838 141.272C624.838 140.024 624.55 139.112 623.974 138.536C623.43 137.928 622.55 137.624 621.334 137.624C619.926 137.624 618.79 138.008 617.926 138.776C617.094 139.544 616.678 140.616 616.678 141.992C616.678 143.88 615.734 144.824 613.846 144.824C612.95 144.824 612.246 144.568 611.734 144.056C611.254 143.544 611.014 142.808 611.014 141.848C611.014 140.248 611.43 138.776 612.262 137.432C613.094 136.088 614.342 135.016 616.006 134.216C617.67 133.384 619.702 132.968 622.102 132.968C624.982 132.968 627.238 133.688 628.87 135.128C630.502 136.568 631.318 138.568 631.318 141.128C631.318 143.56 630.246 146.104 628.102 148.76C625.99 151.416 622.934 153.768 618.934 155.816L629.926 155.624ZM646.226 161.24C643.09 161.24 640.658 160.216 638.93 158.168C637.234 156.12 636.386 153.192 636.386 149.384C636.386 146.152 636.882 143.304 637.874 140.84C638.898 138.344 640.306 136.408 642.098 135.032C643.922 133.656 646.034 132.968 648.434 132.968C651.57 132.968 653.986 133.992 655.682 136.04C657.41 138.088 658.274 141.016 658.274 144.824C658.274 148.056 657.762 150.92 656.738 153.416C655.746 155.88 654.338 157.8 652.514 159.176C650.722 160.552 648.626 161.24 646.226 161.24ZM646.706 155.864C648.434 155.864 649.794 154.904 650.786 152.984C651.778 151.064 652.274 148.456 652.274 145.16C652.274 142.952 651.906 141.272 651.17 140.12C650.434 138.936 649.362 138.344 647.954 138.344C646.226 138.344 644.866 139.32 643.874 141.272C642.882 143.192 642.386 145.8 642.386 149.096C642.386 151.304 642.738 152.984 643.442 154.136C644.178 155.288 645.266 155.864 646.706 155.864Z" fill="#015483"/>
</svg>
