<svg width="238" height="50" viewBox="0 0 238 50" fill="none" xmlns="http://www.w3.org/2000/svg">
<path d="M25 0L30.6129 17.2746H48.7764L34.0818 27.9508L39.6946 45.2254L25 34.5491L10.3054 45.2254L15.9182 27.9508L1.22359 17.2746H19.3871L25 0Z" fill="#FFC774"/>
<path d="M72 0L77.6129 17.2746H95.7764L81.0818 27.9508L86.6946 45.2254L72 34.5491L57.3054 45.2254L62.9182 27.9508L48.2236 17.2746H66.3871L72 0Z" fill="#FFC774"/>
<path d="M119 0L124.613 17.2746H142.776L128.082 27.9508L133.695 45.2254L119 34.5491L104.305 45.2254L109.918 27.9508L95.2236 17.2746H113.387L119 0Z" fill="#FFC774"/>
<path d="M166 0L171.613 17.2746H189.776L175.082 27.9508L180.695 45.2254L166 34.5491L151.305 45.2254L156.918 27.9508L142.224 17.2746H160.387L166 0Z" fill="#FFC774"/>
<path d="M213 0L218.613 17.2746H236.776L222.082 27.9508L227.695 45.2254L213 34.5491L198.305 45.2254L203.918 27.9508L189.224 17.2746H207.387L213 0Z" fill="#FFC774"/>
</svg>
